 <svg id="Layer_1" style="fill: red" data-name="Layer 1" xmlns="http://www.w3.org/2000/svg" viewBox="0 0 1049.92 513.36"><path d="M321.93,478.55c4.38,0,8.77.11,13.15.09,1.53,0,2.41.84,3.26,2.22.6,1,1.1,1.92,1.69,2.92,1.35,2.27,1.79,4.1.62,6.17-1.55,2.75-3.09,5.5-4.66,8.23-2.45,4.27-4.95,8.51-7.37,12.78a4.11,4.11,0,0,1-4.12,2.39c-2.33-.12-4.68-.09-7-.17a2.75,2.75,0,0,1-2.33-1.59q-6.3-11-12.62-22.08a3.91,3.91,0,0,1-.08-4.15c1-1.83,2-3.69,3.2-5.43a3,3,0,0,1,1.92-1.1c2.12-.21,4.27-.24,6.41-.27,2.65,0,5.3,0,7.95,0Zm-.18,5.85h0c-1.49,0-3,0-4.48,0-2.07,0-4.14.13-6.21.22a2.63,2.63,0,0,0-2.12,3.88c.28.46.49,1,.76,1.43q3.76,6.63,7.55,13.25a24.8,24.8,0,0,0,1.57,2.49c1.74,2.37,4.54,2.15,6.08-.35,1.24-2,2.39-4,3.55-6.07,2-3.45,4-6.86,5.83-10.36,1.25-2.37.09-4.26-2.56-4.31C328.4,484.53,325.07,484.4,321.75,484.4Z"/><path d="M321.84,489.87c1.36,0,2.72,0,4.07.06,1,.06,1.47.67,1,1.59-1.23,2.44-2.54,4.85-3.95,7.19a1.55,1.55,0,0,1-2.58-.13c-1.2-2-2.32-4-3.46-6a4.32,4.32,0,0,1-.26-.66c-.45-1.45-.16-2,1.31-2.06,1.29-.09,2.58,0,3.86,0Z"/></svg>