<svg id="Layer_1" style="fill: white" data-name="Layer 1" xmlns="http://www.w3.org/2000/svg" viewBox="0 0 1049.92 513.36"><path d="M347.94,482.06h8.39L364,499.57l7.67-17.51h8.4l-13,27.81h-6.18Z"/><path d="M395.52,481.29c-8.48,0-15.36,6.56-15.36,14.66s6.88,14.66,15.36,14.66a15.92,15.92,0,0,0,7.61-1.93v1.2h7.73V496C410.86,487.85,404,481.29,395.52,481.29Zm0,22.38a7.73,7.73,0,1,1,7.73-7.85V496a7.58,7.58,0,0,1-.15,1.51A7.73,7.73,0,0,1,395.55,503.67Z"/><path d="M415.56,472.79h7.72v37.08h-7.72Z"/><path d="M428.43,472.79h7.73v10.92a9.68,9.68,0,0,1,3-1.83,10.41,10.41,0,0,1,3.65-.64,14.51,14.51,0,0,1,5.85,1.16,13.79,13.79,0,0,1,4.56,3.17,14.56,14.56,0,0,1,3,4.68,15.54,15.54,0,0,1,1,5.72v13.9h-7.72V496a10.19,10.19,0,0,0-.44-3,7,7,0,0,0-1.29-2.45,6.16,6.16,0,0,0-2.11-1.65,6.43,6.43,0,0,0-2.86-.62,6.55,6.55,0,0,0-2.85.6,5.75,5.75,0,0,0-2.12,1.65,7.38,7.38,0,0,0-1.28,2.44,10,10,0,0,0-.44,3v13.95h-7.73Z"/><path d="M469.12,482.06V496a11.28,11.28,0,0,0,.39,3,6.81,6.81,0,0,0,1.18,2.45,5.91,5.91,0,0,0,2,1.65,6.75,6.75,0,0,0,5.61,0,5.91,5.91,0,0,0,2-1.65,7,7,0,0,0,1.19-2.45,11.71,11.71,0,0,0,.38-3V482.06h7.73V496a16.16,16.16,0,0,1-1,5.72,14.14,14.14,0,0,1-2.86,4.68,13.33,13.33,0,0,1-4.45,3.17,15.06,15.06,0,0,1-11.59,0,13.33,13.33,0,0,1-4.45-3.17,14.14,14.14,0,0,1-2.86-4.68,16.15,16.15,0,0,1-1-5.72V482.06Z"/><path d="M510.57,481.42a14.41,14.41,0,0,0-8.33,2.62V472.8h-7.73v37.08h7.73V508a14.41,14.41,0,0,0,8.33,2.62,14.6,14.6,0,0,0,0-29.19Zm-.93,22.28a7.7,7.7,0,0,1-7.4-5.54,7.53,7.53,0,0,1-.32-2.19,7.73,7.73,0,0,1,7.72-7.72,7.73,7.73,0,1,1,0,15.45Z"/><path d="M535.24,506.17a4.11,4.11,0,0,1-.36,1.72,4.91,4.91,0,0,1-1,1.42,4.05,4.05,0,0,1-1.39.95,4.47,4.47,0,0,1-1.72.34,4.39,4.39,0,0,1-4.43-4.43,4.48,4.48,0,0,1,.33-1.73,4.15,4.15,0,0,1,.95-1.39,5.27,5.27,0,0,1,1.42-.95,4.31,4.31,0,0,1,3.45,0,4.7,4.7,0,0,1,1.39.95,4.64,4.64,0,0,1,1,1.39A4.16,4.16,0,0,1,535.24,506.17Z"/><path d="M321.93,478.55c4.38,0,8.77.11,13.15.09,1.53,0,2.41.84,3.26,2.22.6,1,1.1,1.92,1.69,2.92,1.35,2.27,1.79,4.1.62,6.17-1.55,2.75-3.09,5.5-4.66,8.23-2.45,4.27-4.95,8.51-7.37,12.78a4.11,4.11,0,0,1-4.12,2.39c-2.33-.12-4.68-.09-7-.17a2.75,2.75,0,0,1-2.33-1.59q-6.3-11-12.62-22.08a3.91,3.91,0,0,1-.08-4.15c1-1.83,2-3.69,3.2-5.43a3,3,0,0,1,1.92-1.1c2.12-.21,4.27-.24,6.41-.27,2.65,0,5.3,0,7.95,0Zm-.18,5.85h0c-1.49,0-3,0-4.48,0-2.07,0-4.14.13-6.21.22a2.63,2.63,0,0,0-2.12,3.88c.28.46.49,1,.76,1.43q3.76,6.63,7.55,13.25a24.8,24.8,0,0,0,1.57,2.49c1.74,2.37,4.54,2.15,6.08-.35,1.24-2,2.39-4,3.55-6.07,2-3.45,4-6.86,5.83-10.36,1.25-2.37.09-4.26-2.56-4.31C328.4,484.53,325.07,484.4,321.75,484.4Z"/><path d="M321.84,489.87c1.36,0,2.72,0,4.07.06,1,.06,1.47.67,1,1.59-1.23,2.44-2.54,4.85-3.95,7.19a1.55,1.55,0,0,1-2.58-.13c-1.2-2-2.32-4-3.46-6a4.32,4.32,0,0,1-.26-.66c-.45-1.45-.16-2,1.31-2.06,1.29-.09,2.58,0,3.86,0Z"/></svg>